<svg xmlns="http://www.w3.org/2000/svg" width="840" height="180" viewBox="0 0 840 180" fill="none">
  <style>
    .bg { fill: #0d1117; rx: 8; }
    .card { fill: #161b22; rx: 6; }
    .title { fill: #e6edf3; font: 600 13px -apple-system, BlinkMacSystemFont, 'Segoe UI', sans-serif; }
    .value { fill: #e6edf3; font: 700 22px -apple-system, BlinkMacSystemFont, 'Segoe UI', sans-serif; }
    .label { fill: #7d8590; font: 400 11px -apple-system, BlinkMacSystemFont, 'Segoe UI', sans-serif; }
    .bar-bg { fill: #21262d; rx: 3; }
    .bar-evidence { fill: #3fb950; rx: 3; }
    .bar-rivalry { fill: #f85149; rx: 3; }
    .bar-alliance { fill: #58a6ff; rx: 3; }
  </style>

  <!-- Background -->
  <rect class="bg" width="840" height="180" viewBox="0 0 840 180"/>

  <!-- Row 1: Big numbers -->
  <rect class="card" x="16" y="16" width="150" height="70"/>
  <text class="value" x="91" y="50" text-anchor="middle">967</text>
  <text class="label" x="91" y="68" text-anchor="middle">Organizations</text>

  <rect class="card" x="182" y="16" width="150" height="70"/>
  <text class="value" x="257" y="50" text-anchor="middle">1,439</text>
  <text class="label" x="257" y="68" text-anchor="middle">Relationships</text>

  <rect class="card" x="348" y="16" width="150" height="70"/>
  <text class="value" x="423" y="50" text-anchor="middle">885</text>
  <text class="label" x="423" y="68" text-anchor="middle">Active</text>

  <rect class="card" x="514" y="16" width="150" height="70"/>
  <text class="value" x="589" y="50" text-anchor="middle">82</text>
  <text class="label" x="589" y="68" text-anchor="middle">Inactive</text>

  <rect class="card" x="680" y="16" width="124" height="70"/>
  <text class="value" x="742" y="50" text-anchor="middle">54%</text>
  <text class="label" x="742" y="68" text-anchor="middle">Evidence-backed</text>

  <!-- Row 2: Bars -->
  <rect class="card" x="16" y="102" width="388" height="62"/>
  <text class="title" x="32" y="124">Edge Types</text>
  <rect class="bar-bg" x="32" y="134" width="160" height="8"/>
  <rect class="bar-rivalry" x="32" y="134" width="86" height="8"/>
  <text class="label" x="200" y="142">Rivalry 777</text>
  <rect class="bar-bg" x="32" y="150" width="160" height="8"/>
  <rect class="bar-alliance" x="32" y="150" width="60" height="8"/>
  <text class="label" x="200" y="158">Alliance 548</text>

  <rect class="card" x="420" y="102" width="384" height="62"/>
  <text class="title" x="436" y="124">Evidence Coverage</text>
  <rect class="bar-bg" x="436" y="138" width="160" height="12"/>
  <rect class="bar-evidence" x="436" y="138" width="86" height="12"/>
  <text class="label" x="604" y="149">788 / 1,439 with quotes</text>
</svg>